<svg width="136" height="105" viewBox="0 0 136 105" fill="none" xmlns="http://www.w3.org/2000/svg">
<path d="M38.1458 81.9678C33.2182 74.6886 35.1245 64.7929 42.4038 59.8653L97.0092 22.9004C101.937 30.1797 100.03 40.0753 92.7512 45.003L38.1458 81.9678Z" fill="url(#paint0_linear_433_108)"/>
<path d="M38.1458 81.9678C33.2182 74.6886 35.1245 64.7929 42.4038 59.8653L97.0092 22.9004C101.937 30.1797 100.03 40.0753 92.7512 45.003L38.1458 81.9678Z" stroke="white"/>
<path d="M54.0605 8.29054L72.5056 27.6488L61.9134 37.6931L44.3814 19.248C41.1672 16.1799 35.6154 15.0476 33.2413 14.865C18.4852 14.5728 14.6744 22.657 14.6136 26.7356L14.7962 75.3138C15.2726 79.8054 16.7627 82.872 18.9966 84.8103C21.5584 87.0331 24.9834 87.8048 27.032 88.0975C39.4505 89.3759 49.3123 83.471 52.7821 80.062L63.7396 90.1064C56.0694 99.055 31.415 107.821 15.5267 99.9681C2.81601 93.6858 -0.118163 80.9143 0.00358649 75.3138V26.7356C1.46458 7.56 15.8919 2.44655 26.1189 0.6203C36.3459 -1.20595 45.2945 2.62917 48.3991 4.09017C50.8828 5.25897 53.2083 7.37741 54.0605 8.29054Z" fill="url(#paint1_linear_433_108)"/>
<path d="M73.0535 67.0957L61.9134 76.4095L80.1758 97.7766C85.5328 101.855 100.045 108.405 115.24 101.977C130.434 95.5486 134.598 82.2535 134.781 76.4095C135.024 66.3652 135.365 42.9162 134.781 29.475C134.196 16.0338 125.162 7.68175 120.719 5.18588C117.614 2.62913 107.35 -1.82691 91.1333 0.802888C74.9162 3.43268 70.6185 15.4129 70.4967 21.0742H85.2893C86.8964 15.8146 97.0382 14.4997 101.908 14.4997C115.934 15.0841 119.927 24.7267 120.171 29.475V76.9574C111.989 94.3433 96.4294 90.6543 89.6723 86.6365L73.0535 67.0957Z" fill="url(#paint2_linear_433_108)"/>
<defs>
<linearGradient id="paint0_linear_433_108" x1="33.742" y1="62.7191" x2="56.5652" y2="84.2119" gradientUnits="userSpaceOnUse">
<stop stop-color="#7058D2" stop-opacity="0.73"/>
<stop offset="0.515043" stop-color="#8442A4" stop-opacity="0.869062"/>
<stop offset="1" stop-color="#602E78"/>
</linearGradient>
<linearGradient id="paint1_linear_433_108" x1="11.7904" y1="-16.3915" x2="116.754" y2="101.225" gradientUnits="userSpaceOnUse">
<stop stop-color="#7058D2" stop-opacity="0.73"/>
<stop offset="0.515043" stop-color="#8442A4" stop-opacity="0.869062"/>
<stop offset="1" stop-color="#602E78"/>
</linearGradient>
<linearGradient id="paint2_linear_433_108" x1="11.7904" y1="-16.3915" x2="116.754" y2="101.225" gradientUnits="userSpaceOnUse">
<stop stop-color="#7058D2" stop-opacity="0.73"/>
<stop offset="0.515043" stop-color="#8442A4" stop-opacity="0.869062"/>
<stop offset="1" stop-color="#602E78"/>
</linearGradient>
</defs>
</svg>
