<svg width="148" height="40" viewBox="0 0 148 40" fill="none" xmlns="http://www.w3.org/2000/svg">
<path d="M61.62 27.2C60.2867 27.2 59.18 27.0133 58.3 26.64C57.42 26.2533 56.7533 25.7533 56.3 25.14C55.8467 24.5267 55.6067 23.8733 55.58 23.18C55.58 23.0733 55.62 22.98 55.7 22.9C55.7933 22.8067 55.9 22.76 56.02 22.76H58.54C58.7267 22.76 58.8667 22.7933 58.96 22.86C59.0667 22.9267 59.16 23.0133 59.24 23.12C59.3467 23.32 59.4933 23.5133 59.68 23.7C59.88 23.8867 60.1333 24.04 60.44 24.16C60.76 24.2667 61.1533 24.32 61.62 24.32C62.3933 24.32 62.9733 24.2 63.36 23.96C63.76 23.72 63.96 23.3933 63.96 22.98C63.96 22.6867 63.8533 22.4467 63.64 22.26C63.4267 22.06 63.08 21.8867 62.6 21.74C62.1333 21.58 61.5067 21.42 60.72 21.26C59.7067 21.0467 58.84 20.7733 58.12 20.44C57.4133 20.0933 56.8733 19.6467 56.5 19.1C56.1267 18.54 55.94 17.8467 55.94 17.02C55.94 16.2067 56.1667 15.48 56.62 14.84C57.0867 14.2 57.7333 13.7 58.56 13.34C59.3867 12.98 60.3667 12.8 61.5 12.8C62.42 12.8 63.2267 12.92 63.92 13.16C64.6267 13.4 65.22 13.72 65.7 14.12C66.18 14.52 66.54 14.9467 66.78 15.4C67.0333 15.84 67.1667 16.2733 67.18 16.7C67.18 16.8067 67.14 16.9067 67.06 17C66.98 17.08 66.88 17.12 66.76 17.12H64.12C63.9733 17.12 63.8467 17.0933 63.74 17.04C63.6333 16.9867 63.54 16.9 63.46 16.78C63.38 16.4867 63.1667 16.2333 62.82 16.02C62.4867 15.7933 62.0467 15.68 61.5 15.68C60.9133 15.68 60.4533 15.7867 60.12 16C59.8 16.2 59.64 16.5133 59.64 16.94C59.64 17.2067 59.7267 17.44 59.9 17.64C60.0867 17.84 60.3867 18.0133 60.8 18.16C61.2267 18.3067 61.8067 18.46 62.54 18.62C63.7533 18.8467 64.7333 19.1333 65.48 19.48C66.2267 19.8133 66.7733 20.2533 67.12 20.8C67.4667 21.3333 67.64 22.0067 67.64 22.82C67.64 23.7267 67.38 24.5133 66.86 25.18C66.3533 25.8333 65.6467 26.3333 64.74 26.68C63.8333 27.0267 62.7933 27.2 61.62 27.2ZM69.9222 27C69.7755 27 69.6555 26.9533 69.5622 26.86C69.4689 26.7667 69.4222 26.6467 69.4222 26.5V13.3C69.4222 13.1533 69.4689 13.0333 69.5622 12.94C69.6555 12.8467 69.7755 12.8 69.9222 12.8H72.4822C72.6289 12.8 72.7489 12.8467 72.8422 12.94C72.9355 13.0333 72.9822 13.1533 72.9822 13.3V17.76C73.3422 17.3467 73.7822 17.02 74.3022 16.78C74.8355 16.5267 75.4489 16.4 76.1422 16.4C76.9155 16.4 77.6022 16.5733 78.2022 16.92C78.8155 17.2667 79.2955 17.78 79.6422 18.46C79.9889 19.1267 80.1622 19.9467 80.1622 20.92V26.5C80.1622 26.6467 80.1155 26.7667 80.0222 26.86C79.9289 26.9533 79.8089 27 79.6622 27H77.0822C76.9489 27 76.8289 26.9533 76.7222 26.86C76.6289 26.7667 76.5822 26.6467 76.5822 26.5V21.04C76.5822 20.4133 76.4289 19.9333 76.1222 19.6C75.8289 19.2533 75.3889 19.08 74.8022 19.08C74.2555 19.08 73.8155 19.2533 73.4822 19.6C73.1489 19.9333 72.9822 20.4133 72.9822 21.04V26.5C72.9822 26.6467 72.9355 26.7667 72.8422 26.86C72.7489 26.9533 72.6289 27 72.4822 27H69.9222ZM85.55 27.2C84.83 27.2 84.1833 27.0667 83.61 26.8C83.05 26.52 82.6033 26.1467 82.27 25.68C81.9367 25.2133 81.77 24.6867 81.77 24.1C81.77 23.1533 82.1567 22.4067 82.93 21.86C83.7033 21.3 84.73 20.92 86.01 20.72L88.51 20.34V20.06C88.51 19.58 88.41 19.2133 88.21 18.96C88.01 18.7067 87.6433 18.58 87.11 18.58C86.7367 18.58 86.43 18.6533 86.19 18.8C85.9633 18.9467 85.7833 19.1467 85.65 19.4C85.53 19.5733 85.3633 19.66 85.15 19.66H82.91C82.7633 19.66 82.65 19.62 82.57 19.54C82.49 19.4467 82.4567 19.34 82.47 19.22C82.47 18.98 82.5567 18.7067 82.73 18.4C82.9167 18.08 83.1967 17.7667 83.57 17.46C83.9433 17.1533 84.4233 16.9 85.01 16.7C85.5967 16.5 86.3033 16.4 87.13 16.4C87.9967 16.4 88.7367 16.5 89.35 16.7C89.9633 16.9 90.4567 17.18 90.83 17.54C91.2167 17.9 91.5033 18.3267 91.69 18.82C91.8767 19.3 91.97 19.8333 91.97 20.42V26.5C91.97 26.6467 91.9167 26.7667 91.81 26.86C91.7167 26.9533 91.6033 27 91.47 27H89.15C89.0033 27 88.8833 26.9533 88.79 26.86C88.6967 26.7667 88.65 26.6467 88.65 26.5V25.8C88.4767 26.0533 88.2433 26.2867 87.95 26.5C87.6567 26.7133 87.31 26.88 86.91 27C86.5233 27.1333 86.07 27.2 85.55 27.2ZM86.49 24.92C86.8767 24.92 87.2233 24.84 87.53 24.68C87.85 24.5067 88.0967 24.2467 88.27 23.9C88.4567 23.54 88.55 23.0933 88.55 22.56V22.28L86.85 22.58C86.2233 22.6867 85.7633 22.8533 85.47 23.08C85.19 23.2933 85.05 23.5467 85.05 23.84C85.05 24.0667 85.1167 24.26 85.25 24.42C85.3833 24.58 85.5567 24.7067 85.77 24.8C85.9833 24.88 86.2233 24.92 86.49 24.92ZM94.7269 27C94.5802 27 94.4602 26.9533 94.3669 26.86C94.2735 26.7667 94.2269 26.6467 94.2269 26.5V17.1C94.2269 16.9667 94.2735 16.8533 94.3669 16.76C94.4602 16.6533 94.5802 16.6 94.7269 16.6H97.0269C97.1735 16.6 97.2935 16.6533 97.3869 16.76C97.4802 16.8533 97.5269 16.9667 97.5269 17.1V17.9C97.8869 17.4867 98.3135 17.1667 98.8069 16.94C99.3135 16.7133 99.8802 16.6 100.507 16.6H101.387C101.52 16.6 101.634 16.6467 101.727 16.74C101.834 16.8333 101.887 16.9533 101.887 17.1V19.16C101.887 19.2933 101.834 19.4133 101.727 19.52C101.634 19.6133 101.52 19.66 101.387 19.66H99.4469C98.9002 19.66 98.4735 19.8133 98.1669 20.12C97.8735 20.4133 97.7269 20.8333 97.7269 21.38V26.5C97.7269 26.6467 97.6735 26.7667 97.5669 26.86C97.4735 26.9533 97.3535 27 97.2069 27H94.7269ZM103.809 27C103.662 27 103.542 26.9533 103.449 26.86C103.356 26.7667 103.309 26.6467 103.309 26.5V13.3C103.309 13.1533 103.356 13.0333 103.449 12.94C103.542 12.8467 103.662 12.8 103.809 12.8H106.129C106.262 12.8 106.376 12.8467 106.469 12.94C106.576 13.0333 106.629 13.1533 106.629 13.3V20L109.409 16.94C109.489 16.8467 109.576 16.7667 109.669 16.7C109.762 16.6333 109.896 16.6 110.069 16.6H112.749C112.869 16.6 112.969 16.6467 113.049 16.74C113.142 16.82 113.189 16.92 113.189 17.04C113.189 17.0933 113.176 17.1533 113.149 17.22C113.122 17.2867 113.082 17.34 113.029 17.38L109.429 21.26L113.529 26.24C113.636 26.3467 113.689 26.4533 113.689 26.56C113.689 26.68 113.642 26.7867 113.549 26.88C113.469 26.96 113.362 27 113.229 27H110.489C110.289 27 110.142 26.9667 110.049 26.9C109.956 26.82 109.869 26.74 109.789 26.66L106.629 22.86V26.5C106.629 26.6467 106.576 26.7667 106.469 26.86C106.376 26.9533 106.262 27 106.129 27H103.809ZM117.949 27C117.802 27 117.682 26.9533 117.589 26.86C117.495 26.7667 117.449 26.6467 117.449 26.5V16.14H113.889C113.742 16.14 113.622 16.0933 113.529 16C113.435 15.8933 113.389 15.7733 113.389 15.64V13.5C113.389 13.3533 113.435 13.2333 113.529 13.14C113.622 13.0467 113.742 13 113.889 13H124.649C124.795 13 124.915 13.0467 125.009 13.14C125.102 13.2333 125.149 13.3533 125.149 13.5V15.64C125.149 15.7733 125.102 15.8933 125.009 16C124.915 16.0933 124.795 16.14 124.649 16.14H121.089V26.5C121.089 26.6467 121.042 26.7667 120.949 26.86C120.855 26.9533 120.735 27 120.589 27H117.949ZM129.789 27.2C128.215 27.2 126.962 26.7733 126.029 25.92C125.095 25.0667 124.609 23.8 124.569 22.12C124.569 22.0267 124.569 21.9067 124.569 21.76C124.569 21.6133 124.569 21.5 124.569 21.42C124.609 20.3667 124.842 19.4667 125.269 18.72C125.709 17.96 126.309 17.3867 127.069 17C127.842 16.6 128.742 16.4 129.769 16.4C130.942 16.4 131.909 16.6333 132.669 17.1C133.442 17.5667 134.022 18.2 134.409 19C134.795 19.8 134.989 20.7133 134.989 21.74V22.22C134.989 22.3667 134.935 22.4867 134.829 22.58C134.735 22.6733 134.622 22.72 134.489 22.72H128.089C128.089 22.7333 128.089 22.7533 128.089 22.78C128.089 22.8067 128.089 22.8333 128.089 22.86C128.102 23.2467 128.169 23.6 128.289 23.92C128.409 24.24 128.595 24.4933 128.849 24.68C129.102 24.8667 129.409 24.96 129.769 24.96C130.035 24.96 130.255 24.92 130.429 24.84C130.615 24.7467 130.769 24.6467 130.889 24.54C131.009 24.42 131.102 24.32 131.169 24.24C131.289 24.1067 131.382 24.0267 131.449 24C131.529 23.96 131.649 23.94 131.809 23.94H134.289C134.422 23.94 134.529 23.98 134.609 24.06C134.702 24.1267 134.742 24.2267 134.729 24.36C134.715 24.5867 134.602 24.86 134.389 25.18C134.175 25.5 133.862 25.82 133.449 26.14C133.049 26.4467 132.542 26.7 131.929 26.9C131.315 27.1 130.602 27.2 129.789 27.2ZM128.089 20.74H131.469V20.7C131.469 20.2733 131.402 19.9 131.269 19.58C131.149 19.26 130.955 19.0133 130.689 18.84C130.435 18.6667 130.129 18.58 129.769 18.58C129.409 18.58 129.102 18.6667 128.849 18.84C128.609 19.0133 128.422 19.26 128.289 19.58C128.155 19.9 128.089 20.2733 128.089 20.7V20.74ZM141.644 27.2C140.657 27.2 139.784 27.02 139.024 26.66C138.264 26.3 137.657 25.78 137.204 25.1C136.764 24.4067 136.524 23.58 136.484 22.62C136.47 22.4067 136.464 22.14 136.464 21.82C136.464 21.4867 136.47 21.2133 136.484 21C136.524 20.0267 136.764 19.2 137.204 18.52C137.644 17.8267 138.244 17.3 139.004 16.94C139.777 16.58 140.657 16.4 141.644 16.4C142.564 16.4 143.35 16.5333 144.004 16.8C144.657 17.0533 145.19 17.3733 145.604 17.76C146.017 18.1467 146.324 18.5467 146.524 18.96C146.737 19.36 146.85 19.7133 146.864 20.02C146.877 20.1533 146.83 20.2733 146.724 20.38C146.617 20.4733 146.497 20.52 146.364 20.52H143.824C143.677 20.52 143.564 20.4867 143.484 20.42C143.404 20.3533 143.33 20.2533 143.264 20.12C143.104 19.7067 142.897 19.4133 142.644 19.24C142.404 19.0667 142.09 18.98 141.704 18.98C141.17 18.98 140.757 19.1533 140.464 19.5C140.184 19.8467 140.03 20.38 140.004 21.1C139.99 21.6333 139.99 22.1067 140.004 22.52C140.03 23.2533 140.184 23.7867 140.464 24.12C140.757 24.4533 141.17 24.62 141.704 24.62C142.117 24.62 142.444 24.5333 142.684 24.36C142.924 24.1867 143.117 23.8933 143.264 23.48C143.33 23.3467 143.404 23.2467 143.484 23.18C143.564 23.1133 143.677 23.08 143.824 23.08H146.364C146.497 23.08 146.617 23.1333 146.724 23.24C146.83 23.3333 146.877 23.4467 146.864 23.58C146.85 23.8067 146.784 24.0733 146.664 24.38C146.544 24.6733 146.357 24.9867 146.104 25.32C145.85 25.6533 145.517 25.9667 145.104 26.26C144.704 26.54 144.217 26.7667 143.644 26.94C143.07 27.1133 142.404 27.2 141.644 27.2Z" fill="url(#paint0_linear_521_2)"/>
<path d="M31.853 15.6074C34.2261 17.4856 36.1812 17.3172 36.8621 16.9983L37.1695 18.2727C34.3682 19.1496 32.458 16.8612 31.853 15.6074Z" fill="url(#paint1_linear_521_2)"/>
<path fill-rule="evenodd" clip-rule="evenodd" d="M34.05 3.9933C26.09 1.9933 17.3333 5.3933 13.95 7.3433C11.47 6.34329 6.88334 6.59329 4.9 6.84329C16.14 -3.99671 29.0167 0.426631 34.05 3.9933ZM25.6 23.3933C25.7217 23.3714 25.8464 23.3477 25.9741 23.3223C25.8223 23.3688 25.6965 23.3933 25.6 23.3933ZM37 16.4933C33.9875 18.6252 27.8991 22.7333 25.9741 23.3223C31.3726 22.2485 41.9681 18.0745 44 9.24331C34.9333 5.14331 14.81 1.30331 6.84999 18.7433L5.94999 21.5433C5.51666 26.2266 7.53999 36.1533 19.1 38.3933C15.2167 37.01 9.05 31.9633 15.45 22.8433C21.85 13.7233 34.85 11.6433 40.55 11.7433C40.0167 12.86 38.56 15.3733 37 16.4933ZM19.1 28.0433C20.3667 30.61 24.17 34.4533 29.25 29.2933C29.8167 28.0433 32.16 25.4133 37 24.8933C33.9 27.21 29.33 33.4033 35.85 39.6433C34.3 40.01 30.55 39.3833 27.95 33.9433C24.8167 34.6766 18.66 34.5233 19.1 28.0433ZM3.95 8.24331C2.85 9.82664 0.59 13.7833 0.35 16.9433C1.65 16.5766 4.51001 15.8633 5.55 15.9433L6.84999 13.7433C6.88333 12.8933 6.35 10.6033 3.95 8.24331ZM3.95 20.8433L0 19.7433C0.36 30.0633 6.25 35.0433 9.15 36.2433C3.35 30.5633 3.26667 23.61 3.95 20.8433ZM20.3499 11.7932C19.7899 11.0332 19.8166 10.0766 19.8999 9.69322C19.8499 9.57655 19.6899 9.34322 19.4499 9.34322C19.2099 9.34322 19.0499 9.57655 18.9999 9.69322C18.9499 10.0766 18.9099 11.0332 19.1499 11.7932C19.3586 12.4541 19.7841 12.6083 20.0449 12.6045C19.9509 12.6459 20.061 12.6186 20.1499 12.5932C20.1195 12.5997 20.084 12.6039 20.0449 12.6045C20.0743 12.5915 20.1237 12.5718 20.1999 12.5432C20.5199 12.4232 20.4332 11.9932 20.3499 11.7932ZM17.2499 10.5932C17.2999 10.4599 17.4699 10.2032 17.7499 10.2432C18.0299 10.2832 18.1666 10.4932 18.1999 10.5932C18.1332 11.0766 18.1299 12.1832 18.6499 12.7432C19.2999 13.4432 18.0999 13.8932 17.4999 12.7432C17.3666 12.5432 17.1299 11.8332 17.2499 10.5932ZM15.9999 11.3432C15.6799 11.4232 15.5666 11.6766 15.5499 11.7932C15.4299 13.3532 16.0666 14.2432 16.3999 14.4932C17.1999 14.8132 17.1666 14.1266 17.0499 13.7432C16.4899 12.9032 16.4832 12.0932 16.5499 11.7932C16.4999 11.6099 16.3199 11.2632 15.9999 11.3432ZM28.75 10.9433C29.6336 10.9433 30.35 10.2269 30.35 9.34328C30.35 8.45962 29.6336 7.74328 28.75 7.74328C27.8663 7.74328 27.15 8.45962 27.15 9.34328C27.15 10.2269 27.8663 10.9433 28.75 10.9433Z" fill="url(#paint2_linear_521_2)"/>
<defs>
<linearGradient id="paint0_linear_521_2" x1="55" y1="20" x2="148" y2="20" gradientUnits="userSpaceOnUse">
<stop stop-color="#AA58D2" stop-opacity="0.65"/>
<stop offset="1" stop-color="#602E78"/>
</linearGradient>
<linearGradient id="paint1_linear_521_2" x1="38.3925" y1="21.4167" x2="39.373" y2="16.899" gradientUnits="userSpaceOnUse">
<stop stop-color="#AA58D2" stop-opacity="0.12"/>
<stop offset="1" stop-color="#602E78"/>
</linearGradient>
<linearGradient id="paint2_linear_521_2" x1="63.5" y1="-14.5" x2="22" y2="39.7285" gradientUnits="userSpaceOnUse">
<stop stop-color="#AA58D2" stop-opacity="0.12"/>
<stop offset="1" stop-color="#602E78"/>
</linearGradient>
</defs>
</svg>
